<svg xmlns="http://www.w3.org/2000/svg" viewBox="0 0 128 128" role="img" aria-label="Rinha2 Rust favicon">
  <defs>
    <radialGradient id="glow" cx="82%" cy="16%" r="76%"><stop offset="0" stop-color="#f74c00" stop-opacity=".55"/><stop offset=".5" stop-color="#2a170d" stop-opacity=".18"/><stop offset="1" stop-color="#0d0805"/></radialGradient>
    <linearGradient id="panel" x1="18" y1="8" x2="110" y2="120"><stop stop-color="#21140d"/><stop offset="1" stop-color="#120d0a"/></linearGradient>
  </defs>
  <rect width="128" height="128" rx="22" fill="url(#glow)"/>
  <rect x="9" y="9" width="110" height="110" rx="20" fill="url(#panel)" stroke="#b34100" stroke-width="4"/>
  <rect x="16" y="16" width="96" height="96" rx="16" fill="none" stroke="#4d2a17" stroke-width="2"/>
  <path d="M27 66 50 46h28l23 20M27 79l24 20h26l24-20" fill="none" stroke="#5e341c" stroke-width="6" stroke-linecap="round" stroke-linejoin="round"/>
  <rect x="36" y="40" width="56" height="45" rx="10" fill="#120d0a" stroke="#874b25" stroke-width="2"/>
  <text x="64" y="77" text-anchor="middle" font-family="JetBrains Mono, DejaVu Sans Mono, monospace" font-size="40" font-weight="800" fill="#f6e6d1" stroke="#b34100" stroke-width="2">R2</text>
  <path d="M87 26 99 28 91 39 105 42 82 62 88 45 75 42z" fill="#f74c00"/>
  <path d="M33 106h62" stroke="#f74c00" stroke-width="3" stroke-linecap="round"/>
  <path d="M42 112h44" stroke="#efb26f" stroke-width="2" stroke-linecap="round" opacity=".65"/>
  <g fill="#efb26f" stroke="#090503" stroke-width="1.5"><circle cx="22" cy="22" r="4"/><circle cx="106" cy="22" r="4"/><circle cx="22" cy="106" r="4"/><circle cx="106" cy="106" r="4"/></g>
</svg>
